With: Abigail Breslin, Makenzie Vega and Christine Tucci

Nederlands of Engels gesproken,
In een weeshuis op het platteland wonen de zusjes Sal en Ray. De meisjes hebben allebei een wens: Sal wil dolgraag een puppy, terwijl haar jongere zusje Ray niets liever wil dan geadopteerd worden door een familie en een echt 'thuis' krijgen. De droom van Sal komt uit als ze op een dag in de bossen een verlaten hondje vindt. Ze noemt het beestje Chestnut en neemt hem mee. Als de meisjes er nog diezelfde dag achterkomen dat ze geadopteerd zijn, gaat ook de grootste wens van Sal in vervulling. Maar dan blijkt dat het in hun nieuwe thuis, een heel mooi appartement in New York City, verboden is voor honden! Zal het de kinderen lukken de snel groter wordende Deense dog verborgen te houden, of moeten ze voor altijd afscheid nemen van hun grote vriend?

English or Dutch spoken,
A great dane is adopted by two orphan girls in this heartwarming family film. The girls' new family don't know about the loveable mutt however, and the film revolves around the inventive ways he is kept hidden from his new owners.

------------------------ Dutch Friends ------------------------
---------------------------------------------------------------
- Bezoek ook eens mijn vrienden op:  http://www.Film-Test.nl --
----- voor mijn Nederlandse Sync. ondertitels ---- en meer ----
------- http://www.Film-Test.nl ---- voor Films en meer -------
---------------------------------------------------------------

General:

Complete name                    : Chestnut\Hero of Central Park.avi
Format                           : AVI
Format/Info                      : Audio Video Interleave
File size                        : 1.86 GiB
Duration                         : 1h 22mn
Overall bit rate                 : 3 220 Kbps

Video:

Format                           : MPEG-4 Visual
Format profile                   : Simple@L3
Format settings, BVOP            : No
Format settings, QPel            : No
Format settings, GMC             : No warppoints
Format settings, Matrix          : Default (H.263)
Codec ID                         : XVID
Codec ID/Hint                    : XviD
Duration                         : 1h 22mn
Bit rate                         : 2 307 Kbps
Width                            : 704 pixels
Height                           : 396 pixels
Display aspect ratio             : 16:9
Frame rate                       : 25.000 fps
Color space                      : YUV
Chroma subsampling               : 4:2:0
Bit depth                        : 8 bits
Scan type                        : Progressive
Compression mode                 : Lossy
Bits/(Pixel*Frame)               : 0.331
Stream size                      : 1.33 GiB (72%)
Writing library                  : XviD 1.1.2 (UTC 2006-11-01)

Audio 1:

Format                           : AC-3
Format/Info                      : Audio Coding 3
Mode extension                   : CM (complete main)
Codec ID                         : 2000
Duration                         : 1h 22mn
Bit rate mode                    : Constant
Bit rate                         : 448 Kbps
Channel(s)                       : 6 channels
Channel positions                : Front: L C R, Side: L R, LFE
Sampling rate                    : 48.0 KHz
Bit depth                        : 16 bits
Compression mode                 : Lossy
Stream size                      : 265 MiB (14%)
Alignment                        : Aligned on interleaves
Interleave, duration             : 32 ms (0.80 video frame)
Interleave, preload duration     : 32 ms

Audio 2:

Format                           : AC-3
Format/Info                      : Audio Coding 3
Mode extension                   : CM (complete main)
Codec ID                         : 2000
Duration                         : 1h 22mn
Bit rate mode                    : Constant
Bit rate                         : 448 Kbps
Channel(s)                       : 6 channels
Channel positions                : Front: L C R, Side: L R, LFE
Sampling rate                    : 48.0 KHz
Bit depth                        : 16 bits
Compression mode                 : Lossy
Stream size                      : 265 MiB (14%)
Alignment                        : Aligned on interleaves
Interleave, duration             : 32 ms (0.80 video frame)
Interleave, preload duration     : 32 ms

